<?xml version="1.0" encoding="UTF-8"?>
<svg id="Layer_1" data-name="Layer 1" xmlns="http://www.w3.org/2000/svg" viewBox="0 0 2483.59 2725.88">
  <defs>
    <style>
      .cls-1 {
        fill: #231f20;
        stroke: #231f20;
        stroke-miterlimit: 10;
        stroke-width: 20px;
      }
    </style>
  </defs>
  <path class="cls-1" d="M2237.3,1786.73c-127.67,54.28-264.74,103.76-428.51,135.37l-145.15,548.7c-15.45,58.65-58.98,98.13-107.91,98.13h-275.5c-48.82,0-92.23-39.32-107.8-97.69l-147.88-553.56c-280.9-62.58-558.15-214.77-558.15-566.23,0-210.68,123.58-348.89,290.35-436.43l-92.18-345.18c-24.85-93.05,29.98-189.44,107.74-189.44,197.24,0,371.77,160.93,431.73,398.09l3.06,12.18c59.25-6.17,116.21-8.9,168.14-8.9,121.89,0,248.58,12.4,372.59,33.86l45.16-186.92c35.66-147.5,143.51-248.3,265.67-248.3,77.71,0,132.53,96.06,107.96,189l-86.39,326.67c57.17,17.97,111.78,37.46,162.84,58.1,110.75,44.72,231.1-38.17,230.5-157.65-1.8-361.29-257.53-674.96-612.92-739.99-154.7-28.34-329.34-46.53-522.76-46.53C470.62,10,10,598.07,10,1356.09s348.56,1359.79,1427.56,1359.79c120.68,0,258.51-11.3,400.22-34.35,363.85-58.98,633.13-370.46,633.13-739.12,0-120.47-122.7-202.76-233.61-155.69Z"/>
</svg>